<svg xmlns="http://www.w3.org/2000/svg" viewBox="0 0 512 512"><path d="M101.54 439.74c12.95-14.93 16.16-15.06 19.83-.82 1.19 4.64 2.37 8.48 2.6 8.54 1 .2 9.18-1 9.26-1.35s-1.48-7.2-3.39-15.54-3.14-16.46-2.75-18S136 400.46 146 389.23c16.05-18 18.66-20.38 21.85-20.06 3.39.34 3.82 1.21 6.6 13.64 4.27 19 4.34 18.31-2.35 24l-5.81 5 2.86 3.48c1.58 1.91 3.7 3.33 4.71 3.15l3.81-.66c1.08-.19 3 1.37 4.31 3.48 2.21 3.6 2.62 3.77 7 2.95 3.67-.7 4.61-1.47 4.41-3.6-.17-1.88 1-3.45 3.72-5.07a9.81 9.81 0 0 0 4.83-6.28c.91-4.21-.58-5.87-6.41-7.15a11.67 11.67 0 0 1-5.4-2.91c-2.38-2.67-10.68-42-9.77-46.18.37-1.7 6.07-9.19 12.67-16.64 10.89-12.3 12.33-13.46 15.62-12.74 2 .43 3.78 1.67 3.94 2.74.25 1.66 1.12 1.82 5.67 1.09l5.38-.88-1.83-9.64c-1.09-5.74-1.27-10.52-.46-11.8 1.72-2.71 21.93-25.54 24.2-27.35a6.48 6.48 0 0 1 4.7-.66c2.45.53 3.86 3.22 7.44 14.16 2.43 7.42 5 15.85 5.63 18.7l1.2 5.2-7.38 8.47-7.37 8.48 3.86 3c3.83 3 3.9 3 7.54-.23 2.74-2.42 4.52-2.95 7-2.09 2.78.95 4.19 3.91 8.74 18.38 3 9.49 5.28 17.93 5.1 18.74s-8.5 10.38-18.48 21.25l-18.15 19.77-10.2-1.05c-9.85-1-10.22-.93-10.92 2.36-.9 4.29-.09 6.48 2.89 7.76 4.55 2 4.58 5.8 0 10.83-2.29 2.53-4 4.78-3.79 5 2.34 2.7 5.95 6.16 6.56 6.29.42.09 2.55-1.85 4.73-4.32 4.63-5.23 8.78-6.12 11.4-2.45 2.31 3.25 3.37 3.42 7.84 1.3l3.64-1.73-2.17-6.63c-1.18-3.66-1.9-7.8-1.6-9.22.55-2.52 21.58-26.34 26.55-30.07a6.43 6.43 0 0 1 5.53-.82c2.48.88 4.76 6.52 12.89 32 5.44 17 10 31.94 10.23 33.19s-3.13 7.29-7.49 13.56-7.94 11.7-8.06 12.23c-.16.78 6 5.3 7.76 5.68.26.05 1.91-2 3.67-4.66 3.45-5.11 7.28-7 10.26-5 1 .67 3 5 4.33 9.61l2.49 8.41 4.72-1.12c2.6-.61 4.82-1.49 4.91-1.94s-1.65-6.9-3.89-14.31c-5.34-17.66-4.86-18.22 11.91-14.07l12.32 3 1.11-5.09 1.1-5.09-7.91-2.46c-4.34-1.36-12.67-4-18.5-5.85l-10.6-3.38-8.75-27c-4.81-14.84-8.58-27.94-8.35-29.11.9-4.82 4.08-4.74 20.38.58 8.51 2.77 16.37 5.79 17.46 6.71s2.08 4.45 2.19 7.85c.2 6 .33 6.17 4.4 6.18 5.74 0 6.31-.27 7-3.61.8-3.72 3.61-5.5 7.35-4.69 2.07.46 3.14-.1 3.51-1.83a15.79 15.79 0 0 1 1.75-4.35c.83-1.27.24-2.49-1.86-3.86s-2.87-3-2.45-4.88c.64-3-2.7-9.86-5.05-10.37-.74-.17-4 1.69-7.19 4.12l-5.74 4.33-22.59-7.32c-12.43-4-23.47-7.81-24.56-8.39-3-1.65-13.79-36.91-12.13-39.83 1.4-2.43 7-3.42 8.9-1.57.58.57 1.91-1 2.95-3.49 2.34-5.58 1.66-6.32-9-9.9a80.48 80.48 0 0 1-9.76-3.75c-1.81-1.19-12.16-33.3-11.59-36a5 5 0 0 1 2.36-2.85c2.34-1.21 30.88 3 35.38 5.28 2.23 1.11 4.14 4.54 6.55 11.81 1.87 5.64 3.8 10.63 4.28 11.1s2.86.22 5.27-.54l4.39-1.4-1.68-4.77c-.93-2.64-1.14-6.33-.48-8.26 1.09-3.24 1.74-3.45 8.45-2.79 10.19 1 30.27 5.3 31.81 6.83s18.55 53.69 18.11 55.69c-.18.8-2.86 4.61-6 8.46s-5.51 7.2-5.33 7.44 2 1.8 4 3.46c3.52 2.88 3.78 2.91 5.63.72 3.1-3.65 8.06-1.73 10 3.87a51 51 0 0 1 1.79 6c.18 1.59 9.24-.85 9.61-2.59.17-.73-.52-3.9-1.5-7-2-6.42-.26-9.84 4.89-9.49 2.36.15 3-.69 4-4.91l1.1-5.08-8.24-1.73c-6.19-1.36-8.53-2.45-9.64-4.49-2.47-4.53-13.8-41-13.37-43 1-4.75 4.44-4.55 38.45 2.3l33.2 6.68 6.29 13.68c8.11 17.64 7.87 17.37 13.14 14.76l4.33-2.15-3.89-8c-6.77-13.91-4.33-16 14.2-11.92l13.35 2.92.79-5.58.8-5.59-14.38-2.61c-12.22-2.26-14.63-3.06-16.1-5.36-2.07-3.24-.7-6 6.07-12.46a41.59 41.59 0 0 0 5-5.26c.08-.36-1.32-2.26-3.1-4.23l-3.24-3.57-11.62 11.39c-14.09 13.81-12.12 13.59-47.34 5.38L386.14 279l.34-3.31c.24-2.3 3.46-6.14 10.56-12.6 5.63-5.1 11.2-9.57 12.38-9.93 1.92-.59 6.32.83 12.11 3.92 1.57.83 2.5 0 4-3.5 1.64-3.87 1.55-5-.53-7.44s-2.14-3.61-.65-7.14c1.59-3.77 1.41-4.73-1.45-8-1.79-2.05-3.39-3.14-3.54-2.42-.42 1.92-6.9 1.8-8.43-.15-1.64-2.12-10.3-.73-10.77 1.72a15 15 0 0 0 .83 5.33c2.21 7.06.41 9.76-17.08 25.74L367 276.58l-18.46-3.48c-10.16-1.93-19.43-4.25-20.6-5.17-1.56-1.23-1.76-2.67-.74-5.39 1.11-3 .78-4.38-1.59-7a21.4 21.4 0 0 0-3.55-3.42c-.31-.07-3.93 2.7-8 6.16l-7.49 6.29-19.81-3.57c-10.89-1.94-20.52-4-21.41-4.59-4.25-2.8-2-6.58 14.1-23.89l16.2-17.4 12.73 2.78 12.74 2.78 1.12-5.17c1.1-5.08 1-5.2-3.48-6.19-6.2-1.35-9.14-4.12-8.33-7.85.37-1.7 6.1-8.81 12.73-15.81L335.23 173l25.52 6c14 3.26 27.2 6.6 29.25 7.41 2.92 1.14 4.45 3.37 7 10.2l3.26 8.73 4.74-1.64c4.08-1.35 4.79-2.16 5-5.73.35-5.1 2.44-6.06 9.82-4.47l5.48 1.18 1.12-5.18 1.12-5.19-6.29-1.37c-7.11-1.55-9.18-4.07-7.42-9.06.88-2.49.36-4-2.23-6.6l-3.38-3.35-5.9 6.32-5.9 6.33-22.36-5.74c-23.41-6-26.36-7.5-24.33-12.29 1.12-2.64 41.14-46.52 44.69-49 1.19-.84 8.34-.55 18.63.73l16.7 2.1.72-5.16.72-5.16-10.29-2.42c-9.72-2.27-10.27-2.57-10.05-5.51.15-1.93 3.52-6.64 8.92-12.42l8.69-9.31-4-3.46c-2.31-2-4.34-3-4.78-2.27s-4.88 5.48-9.92 10.71c-8.12 8.45-9.58 9.43-12.93 8.7s-4-1.81-5.8-9.4c-1.1-4.71-2.15-8.8-2.32-9.08-.46-.75-9.16 1.76-9.36 2.7-.1.43 1.2 7.08 2.87 14.77s2.75 15.34 2.39 17-9.15 12.12-19.55 23.24c-17.74 19-19.12 20.15-22.73 19.35s-4-1.54-6.45-15c-1.43-7.77-2.42-15.15-2.2-16.41s2.89-4.08 6-6.28l5.55-4-2.32-3.39c-1.81-2.65-3.36-3.45-7.1-3.65-3.93-.21-5-.84-6.16-3.56-1.26-3-1.8-3.26-6.38-2.77-4 .41-4.95 1.06-4.75 3.15.15 1.76-1 3.38-3.59 4.9a12.83 12.83 0 0 0-5.24 6.62c-1.4 4.34-1.36 4.38 4.71 6.68 3.37 1.27 6.71 3.23 7.42 4.37 1.8 2.86 8.91 42.4 8.2 45.66-.55 2.58-19.71 24.36-24.7 28.09-3.05 2.29-5.81 1.76-8.18-1.57-1.55-2.17-2.54-2.45-6.6-1.91l-4.78.64 1.42 8.21c.77 4.51 1.11 9.63.73 11.35s-6.49 9.39-13.61 17.05c-17.77 19.13-18.82 19-26-4.17-2.06-6.59-3.47-13.22-3.14-14.75s4.06-6.43 8.28-10.89L261 185l-4-3.4c-3.71-3.19-4.06-3.27-5.67-1.45-4.36 5-9 7.45-11.41 6.09-3.25-1.88-13.67-34.57-12.16-38.15.63-1.46 9.54-11.51 19.83-22.35 20.16-21.24 19.85-21 31.55-18.53l6.78 1.47 1.05-4.89c.93-4.25.6-5.2-2.48-7.21-4.26-2.77-3.93-5.92 1.17-11.45l3.58-3.88-3.78-3.52-3.79-3.52-4.63 4.91c-4.93 5.25-9.69 5.76-12 1.31-1-2-1.66-2.11-5.33-1.13-4.86 1.32-5.38 2.7-3.28 8.8 3.19 9.23 3.05 9.51-12.32 26-17.12 18.38-17.63 18.79-21.36 16.93-2.21-1.1-5.14-8.65-12.64-32.6-5.37-17.14-9.51-32.34-9.2-33.77s4.74-8.36 9.84-15.37l9.27-12.75-4.23-3-4.25-3-4.8 7C198 50.23 194.39 49 188.92 31.23l-3.82-12.38L181 20a16 16 0 0 0-4.93 2c-.44.47 1.14 7 3.53 14.44s4.19 14.35 4 15.28c-.78 3.6-4.82 4.07-13.73 1.59L161 50.78l-1.52 4.79c-1.84 5.77-2.19 5.52 15.67 10.64 7.43 2.12 14.05 4.39 14.71 5 2.53 2.46 18.26 54.61 17.28 57.26s-1.53 2.59-14.92-.66c-17-4.11-19.65-6-20.48-14.3-.34-3.44-.69-6.39-.77-6.58a21.74 21.74 0 0 0-5.16.1c-4.2.36-5.22 1.07-6.28 4.35s-1.84 3.86-5.46 3.43c-3.81-.45-4.34 0-5.64 4.19-1.11 3.64-.92 5.11.86 6.58a7.7 7.7 0 0 1 2.19 5.46 12.64 12.64 0 0 0 2.79 7l2.87 3.47 5.21-4.23c2.87-2.33 6-4.36 7.06-4.52 2.6-.4 43.78 14.17 45.24 16 .66.83 3.62 9.07 6.58 18.32 5.72 17.9 5.72 22.17 0 22.25-2.84 0-3.63.89-4.92 5.27l-1.54 5.23 8.8 2.88c5.77 1.88 9.27 3.74 10.17 5.41 2.45 4.58 12.74 39.19 12.28 41.31a4.73 4.73 0 0 1-3.23 2.86c-3 .84-28.81-4.37-33.39-6.75-1.81-.93-3.8-5.1-6-12.46-1.78-6.08-3.35-11.29-3.49-11.58s-2.29.15-4.78 1c-4.68 1.55-4.82 1.95-3.45 10 1.47 8.69.39 8.87-21.46 3.68l-19.61-4.65-7.93-26.82c-4.36-14.74-7.82-27.56-7.67-28.48s2.75-4.77 5.79-8.53a83.23 83.23 0 0 0 5.68-7.5c.08-.36-1.45-2-3.39-3.59-3.22-2.67-3.79-2.8-6.23-1.39-4.74 2.74-8.08.87-9.74-5.44l-1.51-5.76-4.61 1.3a53.86 53.86 0 0 0-5.18 1.54c-.32.17.2 2.68 1.15 5.58 2.63 8 .37 12.94-5.34 11.69-1.85-.4-2.55.55-3.44 4.67l-1.09 5.2 7.49 1.63c4.12.91 8.24 2.57 9.17 3.7 2 2.48 13.55 42.25 13 44.81-1 4.54-3.68 4.34-36-2.72C83.2 217.56 68 213.89 67 213.23s-4.58-7.39-7.92-15-6.41-14.34-6.8-15.07-2.78-.45-5.31.63l-4.59 2 3.62 8.55c2 4.7 3.43 9.17 3.27 9.94-.79 3.62-5.55 4-17.73 1.32l-12.36-2.7-1.57 5.37-1.61 5.38 15.78 3.83c15.58 3.78 15.79 3.87 15.55 7-.15 2.1-2.55 5.35-6.93 9.39l-6.71 6.18 3.67 3.75 3.64 3.79 9.65-9c16.5-15.45 11.94-14.64 43.56-7.74 15.06 3.29 28.22 6.54 29.25 7.21 3.88 2.56.58 8.06-10.55 17.65-11.58 10-12.2 10.15-21.12 5.9-4.34-2.06-4.68-2-6.09 1.08-.81 1.8-1.8 3.85-2.19 4.57s.31 2.28 1.54 3.49c1.82 1.78 1.93 3.13.53 7-1.5 4.16-1.33 5.23 1.34 8.3 2 2.28 3.48 3.09 4.22 2.31s3.23-.56 5.77.2a34.79 34.79 0 0 0 9 1.3l4.36-.12-1.09-7.53c-1.31-9.1-2.24-7.82 18.59-25.66 9.73-8.33 17-13.55 18.79-13.56 1.64 0 10.72 2.13 20.17 4.74l17.27 4.72-.39 4.89a11.45 11.45 0 0 0 2.32 8.16l2.71 3.27 7.38-6 7.39-6.05 16 3.11c16.4 3.19 19.42 4.66 18.45 9-.27 1.16-5.91 8.24-12.54 15.75l-12.06 13.63-12.64-2.38-12.72-2.43-1.11 5.13c-1.1 5.11-1.09 5.14 3.94 6.24 7.11 1.55 8.89 3.07 8.07 6.88-.69 3.2-18.27 24.37-23.31 28.08-2.22 1.64-5.4 1.2-29.45-4.05-14.92-3.26-27.88-6.67-29-7.66s-3.3-5.1-4.81-9.18c-2.94-7.94-4-8.77-8.73-6.59-2 .95-3.33 2.91-4 6.19l-1 4.8-6.86-1.08-6.84-1.1-1.1 5.09c-1.2 5.51-.57 6.14 8.85 9 4.22 1.27 4.38 1.56 3.28 6-1 4.08-.66 5.05 2.67 7.65l3.83 3 5.06-6 5.07-5.95 23.11 4.67c23.92 4.84 26.56 6 25.53 10.74-.27 1.28-10.42 13.47-22.54 27.11l-22 24.79-13.14-1.08c-23.4-1.94-21.7-2.08-22.52 1.83-1.2 5.69-.11 6.61 10.23 8.74 9.69 2 9.7 2 9.33 5.69-.34 3.44-2.64 6.55-13.35 18l-3.35 3.6 3.17 2.75a18.59 18.59 0 0 0 4.48 3.08c.71.19 5.32-4.32 10.27-10z"/></svg>
